<svg width="24" height="25" viewBox="0 0 24 25" fill="none" xmlns="http://www.w3.org/2000/svg">
<path d="M16 5.12127C14.7838 4.41229 13.4043 4.03905 12 4.03905C10.5957 4.03905 9.21615 4.41229 8 5.12127C6.78385 5.83024 5.77394 6.84996 5.0718 8.07793C4.36965 9.30591 4 10.6989 4 12.1168C4 13.5348 4.36965 14.9277 5.0718 16.1557C5.77394 17.3837 6.78385 18.4034 8 19.1124C9.21615 19.8213 10.5957 20.1946 12 20.1946C13.4043 20.1946 14.7838 19.8213 16 19.1124" stroke="#0386CA" stroke-width="2"/>
<path d="M22 12.1167L22.7838 12.7377L23.2758 12.1167L22.7838 11.4957L22 12.1167ZM13 11.1167C12.4477 11.1167 12 11.5644 12 12.1167C12 12.669 12.4477 13.1167 13 13.1167V11.1167ZM18.7838 17.7863L22.7838 12.7377L21.2162 11.4957L17.2162 16.5443L18.7838 17.7863ZM22.7838 11.4957L18.7838 6.44707L17.2162 7.68909L21.2162 12.7377L22.7838 11.4957ZM22 11.1167H13V13.1167H22V11.1167Z" fill="#0386CA"/>
</svg>
